<svg width="720" height="960" viewBox="0 0 720 960" fill="none" xmlns="http://www.w3.org/2000/svg">
  <rect width="720" height="960" rx="48" fill="#F3E0A8"/>
  <rect x="44" y="44" width="632" height="872" rx="36" fill="#F8F2DC"/>
  <rect x="118" y="134" width="482" height="676" rx="28" fill="#D7A25C"/>
  <circle cx="502" cy="258" r="44" fill="#F4D44D"/>
  <path d="M272 308C330 252 392 266 424 340L458 420C476 460 464 508 428 532L366 574L326 688H244L286 534L240 428C214 368 226 332 272 308Z" fill="#F36B2C"/>
  <path d="M352 236C387.346 236 416 207.346 416 172C416 136.654 387.346 108 352 108C316.654 108 288 136.654 288 172C288 207.346 316.654 236 352 236Z" fill="#1F4534"/>
  <rect x="470" y="442" width="18" height="220" rx="9" transform="rotate(30 470 442)" fill="#1F4534"/>
  <text x="86" y="874" fill="#1F4534" font-size="52" font-family="Arial, sans-serif" font-weight="700">BEFORE</text>
  <text x="86" y="924" fill="#6B6655" font-size="26" font-family="Arial, sans-serif">Session 1 · Setup Position</text>
</svg>
