<svg width="720" height="960" viewBox="0 0 720 960" fill="none" xmlns="http://www.w3.org/2000/svg">
  <rect width="720" height="960" rx="48" fill="#143F2E"/>
  <rect x="44" y="44" width="632" height="872" rx="36" fill="#1D5B42"/>
  <rect x="118" y="134" width="482" height="676" rx="28" fill="#E47B34"/>
  <circle cx="522" cy="250" r="42" fill="#F4D44D"/>
  <path d="M286 292C348 250 424 284 468 356L506 420C538 482 516 560 454 594L394 626L364 708H270L312 584L252 458C214 378 226 332 286 292Z" fill="#F7C94A"/>
  <path d="M364 236C399.346 236 428 207.346 428 172C428 136.654 399.346 108 364 108C328.654 108 300 136.654 300 172C300 207.346 328.654 236 364 236Z" fill="#F7F3E9"/>
  <rect x="486" y="410" width="18" height="250" rx="9" transform="rotate(28 486 410)" fill="#F7F3E9"/>
  <text x="86" y="874" fill="#F7F3E9" font-size="52" font-family="Arial, sans-serif" font-weight="700">AFTER</text>
  <text x="86" y="924" fill="#D5DFC8" font-size="26" font-family="Arial, sans-serif">Session 12 · Forward Swing</text>
</svg>
